<svg id="visual" viewBox="0 0 960 540" width="960" height="540" xmlns="http://www.w3.org/2000/svg" xmlns:xlink="http://www.w3.org/1999/xlink" version="1.1"><path d="M0 168L14.5 169.8C29 171.7 58 175.3 87.2 167.3C116.3 159.3 145.7 139.7 174.8 150.5C204 161.3 233 202.7 262 203.5C291 204.3 320 164.7 349 150.3C378 136 407 147 436.2 155.2C465.3 163.3 494.7 168.7 523.8 166.8C553 165 582 156 611 164C640 172 669 197 698 185.3C727 173.7 756 125.3 785.2 106.5C814.3 87.7 843.7 98.3 872.8 109C902 119.7 931 130.3 945.5 135.7L960 141L960 0L945.5 0C931 0 902 0 872.8 0C843.7 0 814.3 0 785.2 0C756 0 727 0 698 0C669 0 640 0 611 0C582 0 553 0 523.8 0C494.7 0 465.3 0 436.2 0C407 0 378 0 349 0C320 0 291 0 262 0C233 0 204 0 174.8 0C145.7 0 116.3 0 87.2 0C58 0 29 0 14.5 0L0 0Z" fill="#004cbb"></path><path d="M0 217L14.5 218.8C29 220.7 58 224.3 87.2 219C116.3 213.7 145.7 199.3 174.8 217.3C204 235.3 233 285.7 262 290.2C291 294.7 320 253.3 349 231.7C378 210 407 208 436.2 208.8C465.3 209.7 494.7 213.3 523.8 216C553 218.7 582 220.3 611 229.3C640 238.3 669 254.7 698 243C727 231.3 756 191.7 785.2 175.5C814.3 159.3 843.7 166.7 872.8 172.2C902 177.7 931 181.3 945.5 183.2L960 185L960 139L945.5 133.7C931 128.3 902 117.7 872.8 107C843.7 96.3 814.3 85.7 785.2 104.5C756 123.3 727 171.7 698 183.3C669 195 640 170 611 162C582 154 553 163 523.8 164.8C494.7 166.7 465.3 161.3 436.2 153.2C407 145 378 134 349 148.3C320 162.7 291 202.3 262 201.5C233 200.7 204 159.3 174.8 148.5C145.7 137.7 116.3 157.3 87.2 165.3C58 173.3 29 169.7 14.5 167.8L0 166Z" fill="#2573ff"></path><path d="M0 303L14.5 306.7C29 310.3 58 317.7 87.2 316.8C116.3 316 145.7 307 174.8 315.2C204 323.3 233 348.7 262 345C291 341.3 320 308.7 349 292.3C378 276 407 276 436.2 284.2C465.3 292.3 494.7 308.7 523.8 314.2C553 319.7 582 314.3 611 317C640 319.7 669 330.3 698 319.5C727 308.7 756 276.3 785.2 259.3C814.3 242.3 843.7 240.7 872.8 247.8C902 255 931 271 945.5 279L960 287L960 183L945.5 181.2C931 179.3 902 175.7 872.8 170.2C843.7 164.7 814.3 157.3 785.2 173.5C756 189.7 727 229.3 698 241C669 252.7 640 236.3 611 227.3C582 218.3 553 216.7 523.8 214C494.7 211.3 465.3 207.7 436.2 206.8C407 206 378 208 349 229.7C320 251.3 291 292.7 262 288.2C233 283.7 204 233.3 174.8 215.3C145.7 197.3 116.3 211.7 87.2 217C58 222.3 29 218.7 14.5 216.8L0 215Z" fill="#6198ff"></path><path d="M0 428L14.5 426.2C29 424.3 58 420.7 87.2 406.2C116.3 391.7 145.7 366.3 174.8 368.2C204 370 233 399 262 407.2C291 415.3 320 402.7 349 391.8C378 381 407 372 436.2 380C465.3 388 494.7 413 523.8 413C553 413 582 388 611 390.8C640 393.7 669 424.3 698 423.3C727 422.3 756 389.7 785.2 373.3C814.3 357 843.7 357 872.8 361.5C902 366 931 375 945.5 379.5L960 384L960 285L945.5 277C931 269 902 253 872.8 245.8C843.7 238.7 814.3 240.3 785.2 257.3C756 274.3 727 306.7 698 317.5C669 328.3 640 317.7 611 315C582 312.3 553 317.7 523.8 312.2C494.7 306.7 465.3 290.3 436.2 282.2C407 274 378 274 349 290.3C320 306.7 291 339.3 262 343C233 346.7 204 321.3 174.8 313.2C145.7 305 116.3 314 87.2 314.8C58 315.7 29 308.3 14.5 304.7L0 301Z" fill="#2573ff"></path><path d="M0 541L14.5 541C29 541 58 541 87.2 541C116.3 541 145.7 541 174.8 541C204 541 233 541 262 541C291 541 320 541 349 541C378 541 407 541 436.2 541C465.3 541 494.7 541 523.8 541C553 541 582 541 611 541C640 541 669 541 698 541C727 541 756 541 785.2 541C814.3 541 843.7 541 872.8 541C902 541 931 541 945.5 541L960 541L960 382L945.5 377.5C931 373 902 364 872.8 359.5C843.7 355 814.3 355 785.2 371.3C756 387.7 727 420.3 698 421.3C669 422.3 640 391.7 611 388.8C582 386 553 411 523.8 411C494.7 411 465.3 386 436.2 378C407 370 378 379 349 389.8C320 400.7 291 413.3 262 405.2C233 397 204 368 174.8 366.2C145.7 364.3 116.3 389.7 87.2 404.2C58 418.7 29 422.3 14.5 424.2L0 426Z" fill="#004cbb"></path></svg>